<svg width="34" height="24" viewBox="0 0 34 24" fill="none" xmlns="http://www.w3.org/2000/svg">
<g clip-path="url(#clip0_19085_4584)">
<path d="M33.954 21.9384C33.954 23.0733 33.0273 24 31.8924 24H2.06161C0.926681 24 0 23.0733 0 21.9384V2.06161C0 0.926681 0.926681 0 2.06161 0H31.882C33.0169 0 33.9436 0.926681 33.9436 2.06161V21.9384H33.954Z" fill="white"/>
<path d="M27.2802 6.70538H26.0516H20.3665H19.1379L18.3049 7.64248L15.6186 10.6724L14.7856 11.6095H13.557H7.97607H6.74743L7.55958 10.662L7.94483 10.2143L8.75698 9.26677H7.52834H5.9457H5.06066C4.38388 9.26677 3.83203 9.83944 3.83203 10.5266V12.9631V13.1922C3.83203 13.8898 4.38388 14.452 5.06066 14.452H5.40427H18.3153H19.242C19.9188 14.452 20.8455 14.0251 21.2932 13.5149L23.4381 11.0785L27.2802 6.70538Z" fill="#004E91"/>
<path d="M28.9148 3.86289C29.5916 3.86289 30.1435 4.43556 30.1435 5.12276V7.78827C30.1435 8.48588 29.5916 9.04814 28.9148 9.04814H28.2485H26.4472H25.2185L26.0411 8.11105L26.4472 7.6425L27.2697 6.70541H19.1274L14.7856 11.5991H6.69531L12.4949 5.03946L12.7135 4.78957C13.1717 4.27938 14.0983 3.85248 14.7751 3.85248H15.0563H28.9148V3.86289Z" fill="#FFDD00"/>
<path d="M30.1435 20.033V19.6477C30.1435 19.5957 30.1123 19.5644 30.0394 19.5644H29.7895C29.7166 19.5644 29.6646 19.554 29.6542 19.5228C29.6333 19.4915 29.6333 19.4291 29.6333 19.3249V17.8672H30.0394C30.0706 17.8672 30.0915 17.8568 30.1123 17.836C30.1331 17.8152 30.1435 17.7944 30.1435 17.7631V17.357C30.1435 17.3258 30.1331 17.305 30.1123 17.2842C30.0915 17.2633 30.0706 17.2529 30.0394 17.2529H29.6333V16.7219C29.6333 16.6907 29.6229 16.6698 29.6125 16.6594C29.5917 16.649 29.5709 16.6386 29.55 16.6386H29.5396L28.9357 16.7427C28.9045 16.7531 28.8837 16.7636 28.8628 16.774C28.842 16.7948 28.8316 16.8156 28.8316 16.8364V17.2425H28.4255C28.3943 17.2425 28.3735 17.2529 28.3526 17.2738C28.3318 17.2946 28.3214 17.3154 28.3214 17.3466V17.6798C28.3214 17.7111 28.3318 17.7319 28.3526 17.7423C28.3735 17.7631 28.3943 17.7735 28.4255 17.7839L28.8316 17.8464V19.3041C28.8316 19.4811 28.8524 19.6269 28.8837 19.7414C28.9253 19.856 28.9774 19.9393 29.0398 20.0017C29.1127 20.0642 29.196 20.1059 29.3001 20.1267C29.4043 20.1475 29.5292 20.1579 29.6646 20.1579C29.7375 20.1579 29.7999 20.1579 29.8624 20.1475C29.9145 20.1371 29.9873 20.1267 30.0602 20.1163C30.1123 20.1163 30.1435 20.085 30.1435 20.033ZM27.9778 19.9809V19.5332C27.9778 19.502 27.9674 19.4811 27.9466 19.4707C27.9257 19.4603 27.9049 19.4499 27.8841 19.4499H27.8737C27.78 19.4603 27.6863 19.4707 27.603 19.4707C27.5197 19.4811 27.4051 19.4811 27.2594 19.4811C27.2073 19.4811 27.1448 19.4707 27.1032 19.4499C27.0511 19.4291 27.0095 19.3978 26.9678 19.3562C26.9262 19.3145 26.9054 19.2521 26.8845 19.1792C26.8637 19.1063 26.8533 19.0126 26.8533 18.898V18.4816C26.8533 18.367 26.8637 18.2733 26.8845 18.2004C26.9054 18.1275 26.9366 18.0651 26.9678 18.0234C27.0095 17.9818 27.0511 17.9505 27.1032 17.9297C27.1552 17.9089 27.2073 17.8985 27.2594 17.8985C27.4051 17.8985 27.5197 17.8985 27.603 17.9089C27.6863 17.9193 27.78 17.9193 27.8737 17.9297H27.8841C27.9153 17.9297 27.9362 17.9193 27.9466 17.9089C27.9674 17.8985 27.9778 17.8777 27.9778 17.8464V17.3987C27.9778 17.357 27.9674 17.3362 27.957 17.3258C27.9362 17.3154 27.9153 17.2946 27.8737 17.2842C27.8008 17.2633 27.7175 17.2529 27.603 17.2321C27.4884 17.2113 27.3635 17.2113 27.2073 17.2113C26.8533 17.2113 26.5722 17.3154 26.3535 17.5341C26.1453 17.7527 26.0307 18.0651 26.0307 18.4816V18.898C26.0307 19.3041 26.1349 19.6269 26.3535 19.8456C26.5618 20.0642 26.8533 20.1683 27.2073 20.1683C27.3531 20.1683 27.4884 20.1579 27.603 20.1475C27.7175 20.1267 27.8112 20.1163 27.8737 20.0954C27.9153 20.085 27.9362 20.0746 27.957 20.0538C27.9778 20.0434 27.9778 20.0121 27.9778 19.9809ZM24.7188 19.4499C24.6563 19.4811 24.5939 19.502 24.521 19.5228C24.4481 19.5436 24.3752 19.554 24.3023 19.554C24.1982 19.554 24.1149 19.5436 24.0628 19.5124C24.0108 19.4811 23.9899 19.4187 23.9899 19.3041V19.2625C23.9899 19.2 24.0004 19.1479 24.0108 19.1063C24.0212 19.0646 24.0524 19.023 24.0837 18.9918C24.1149 18.9605 24.167 18.9397 24.219 18.9189C24.2711 18.9085 24.344 18.898 24.4377 18.898H24.7188V19.4499ZM25.5101 18.2317C25.5101 18.0443 25.4789 17.8881 25.4268 17.7631C25.3748 17.6382 25.2915 17.5341 25.1978 17.4508C25.0936 17.3675 24.9791 17.305 24.8333 17.2738C24.6876 17.2321 24.521 17.2113 24.344 17.2113C24.1774 17.2113 24.0108 17.2217 23.8546 17.2425C23.6984 17.2633 23.5735 17.2842 23.4798 17.3154C23.4173 17.3362 23.386 17.3675 23.386 17.4299V17.836C23.386 17.8672 23.3965 17.8881 23.4069 17.9089C23.4277 17.9193 23.4485 17.9297 23.4693 17.9297H23.4902C23.5318 17.9297 23.5839 17.9193 23.6359 17.9193C23.6984 17.9193 23.7609 17.9089 23.8338 17.9089C23.9067 17.9089 23.9899 17.8985 24.0732 17.8985C24.1565 17.8985 24.2398 17.8985 24.3127 17.8985C24.4273 17.8985 24.521 17.9193 24.5834 17.961C24.6459 18.0026 24.6876 18.0963 24.6876 18.2421V18.4191H24.4168C23.9899 18.4191 23.6672 18.4816 23.4798 18.6169C23.2819 18.7523 23.1882 18.9709 23.1882 19.2625V19.3041C23.1882 19.4707 23.209 19.6061 23.2611 19.7102C23.3132 19.8247 23.3756 19.908 23.4589 19.9809C23.5422 20.0434 23.6255 20.0954 23.7296 20.1267C23.8338 20.1579 23.9379 20.1683 24.0524 20.1683C24.1982 20.1683 24.3335 20.1475 24.4377 20.1059C24.5418 20.0642 24.6459 20.0121 24.75 19.9393V20.0226C24.75 20.0538 24.7604 20.0746 24.7813 20.0954C24.8021 20.1163 24.8229 20.1267 24.8542 20.1267H25.4164C25.4477 20.1267 25.4685 20.1163 25.4893 20.0954C25.5101 20.0746 25.5205 20.0538 25.5205 20.0226V18.2317H25.5101ZM22.8342 20.033V19.6477C22.8342 19.5957 22.803 19.5644 22.7301 19.5644H22.4906C22.4177 19.5644 22.3657 19.554 22.3552 19.5228C22.3344 19.4915 22.3344 19.4291 22.3344 19.3249V17.8672H22.7405C22.7717 17.8672 22.7926 17.8568 22.8134 17.836C22.8342 17.8152 22.8446 17.7944 22.8446 17.7631V17.357C22.8446 17.3258 22.8342 17.305 22.8134 17.2842C22.7926 17.2633 22.7717 17.2529 22.7405 17.2529H22.3344V16.7219C22.3344 16.6907 22.324 16.6698 22.3136 16.6594C22.2928 16.649 22.2719 16.6386 22.2511 16.6386H22.2407L21.6368 16.7427C21.6056 16.7531 21.5847 16.7636 21.5639 16.774C21.5431 16.7948 21.5327 16.8156 21.5327 16.8364V17.2425H21.1266C21.0954 17.2425 21.0745 17.2529 21.0537 17.2738C21.0329 17.2946 21.0225 17.3154 21.0225 17.3466V17.6798C21.0225 17.7111 21.0329 17.7319 21.0537 17.7423C21.0745 17.7631 21.0954 17.7735 21.1266 17.7839L21.5327 17.8464V19.3041C21.5327 19.4811 21.5535 19.6269 21.5847 19.7414C21.6264 19.856 21.6785 19.9393 21.7409 20.0017C21.8034 20.0642 21.8971 20.1059 22.0012 20.1267C22.1054 20.1475 22.2303 20.1579 22.3657 20.1579C22.4385 20.1579 22.501 20.1579 22.5635 20.1475C22.6155 20.1371 22.6884 20.1267 22.7613 20.1163C22.803 20.1163 22.8342 20.085 22.8342 20.033ZM20.6476 20.0226V18.3566C20.6476 18.2004 20.6372 18.0547 20.606 17.9089C20.5852 17.7735 20.5331 17.6486 20.4706 17.5445C20.4082 17.4403 20.3145 17.357 20.1999 17.305C20.0854 17.2425 19.9396 17.2113 19.7522 17.2113C19.596 17.2113 19.4503 17.2321 19.3253 17.2738C19.2004 17.3154 19.0754 17.3779 18.9296 17.482V17.357C18.9296 17.3258 18.9192 17.305 18.8984 17.2842C18.8776 17.2633 18.8568 17.2529 18.8255 17.2529H18.2633C18.232 17.2529 18.2112 17.2633 18.1904 17.2842C18.1696 17.305 18.1591 17.3258 18.1591 17.357V20.0226C18.1591 20.0538 18.1696 20.0746 18.1904 20.0954C18.2112 20.1163 18.232 20.1267 18.2633 20.1267H18.8672C18.8984 20.1267 18.9192 20.1163 18.9401 20.0954C18.9609 20.0746 18.9713 20.0538 18.9713 20.0226V18.0547C19.0546 18.013 19.1379 17.9714 19.2212 17.9401C19.2941 17.9089 19.3774 17.8985 19.4503 17.8985C19.5231 17.8985 19.5856 17.9089 19.6377 17.9193C19.6897 17.9297 19.721 17.961 19.7522 17.9922C19.7834 18.0338 19.7939 18.0755 19.8043 18.138C19.8147 18.2004 19.8147 18.2733 19.8147 18.3566V20.0226C19.8147 20.0538 19.8251 20.0746 19.8459 20.0954C19.8667 20.1163 19.8876 20.1267 19.9188 20.1267H20.5227C20.5539 20.1267 20.5748 20.1163 20.5956 20.0954C20.6372 20.0746 20.6476 20.0434 20.6476 20.0226ZM16.8576 18.8668C16.8576 19.2729 16.7119 19.4811 16.4099 19.4811C16.2641 19.4811 16.1496 19.4291 16.0767 19.3249C16.0038 19.2208 15.9622 19.0646 15.9622 18.8668V18.5128C15.9622 18.3046 16.0038 18.1588 16.0767 18.0547C16.1496 17.9505 16.2641 17.8985 16.4099 17.8985C16.7014 17.8985 16.8576 18.1067 16.8576 18.5128V18.8668ZM17.6698 18.5128C17.6698 18.315 17.6385 18.1275 17.5865 17.9714C17.5344 17.8152 17.4511 17.6798 17.347 17.5653C17.2429 17.4508 17.1075 17.3675 16.9513 17.305C16.7952 17.2425 16.6181 17.2113 16.4099 17.2113C16.2017 17.2113 16.0247 17.2425 15.8685 17.305C15.7123 17.3675 15.5769 17.4508 15.4728 17.5653C15.3687 17.6798 15.2854 17.8152 15.2333 17.9714C15.1813 18.1275 15.15 18.315 15.15 18.5128V18.8668C15.15 19.0646 15.1813 19.2521 15.2333 19.4082C15.2854 19.5644 15.3687 19.6998 15.4728 19.8143C15.5769 19.9288 15.7123 20.0121 15.8685 20.0746C16.0247 20.1371 16.2017 20.1683 16.4099 20.1683C16.6181 20.1683 16.7952 20.1371 16.9513 20.0746C17.1075 20.0121 17.2429 19.9288 17.347 19.8143C17.4511 19.6998 17.5344 19.5644 17.5865 19.4082C17.6385 19.2521 17.6698 19.0646 17.6698 18.8668V18.5128ZM14.8793 19.9809V19.5332C14.8793 19.502 14.8689 19.4811 14.8481 19.4707C14.8273 19.4603 14.8064 19.4499 14.7752 19.4499H14.7648C14.6711 19.4603 14.5774 19.4707 14.4941 19.4707C14.4108 19.4707 14.2962 19.4811 14.1505 19.4811C14.0984 19.4811 14.0359 19.4707 13.9943 19.4499C13.9422 19.4291 13.9006 19.3978 13.8589 19.3562C13.8173 19.3145 13.7965 19.2521 13.7756 19.1792C13.7548 19.1063 13.7444 19.0126 13.7444 18.898V18.4816C13.7444 18.367 13.7548 18.2733 13.7756 18.2004C13.7965 18.1275 13.8277 18.0651 13.8589 18.0234C13.9006 17.9818 13.9422 17.9505 13.9943 17.9297C14.0463 17.9089 14.0984 17.8985 14.1505 17.8985C14.2962 17.8985 14.4108 17.8985 14.4941 17.9089C14.5774 17.9193 14.6711 17.9193 14.7648 17.9297H14.7752C14.8064 17.9297 14.8273 17.9193 14.8481 17.9089C14.8689 17.8985 14.8793 17.8777 14.8793 17.8464V17.3987C14.8793 17.357 14.8689 17.3362 14.8585 17.3258C14.8377 17.3154 14.8168 17.2946 14.7752 17.2842C14.7023 17.2633 14.619 17.2529 14.5045 17.2321C14.3899 17.2113 14.265 17.2113 14.1088 17.2113C13.7548 17.2113 13.4737 17.3154 13.255 17.5341C13.0468 17.7527 12.9322 18.0651 12.9322 18.4816V18.898C12.9322 19.3041 13.0364 19.6269 13.255 19.8456C13.4633 20.0642 13.7548 20.1683 14.1088 20.1683C14.2546 20.1683 14.3899 20.1579 14.5045 20.1475C14.619 20.1267 14.7023 20.1163 14.7752 20.0954C14.8168 20.085 14.8377 20.0746 14.8585 20.0538C14.8793 20.0434 14.8793 20.0121 14.8793 19.9809ZM12.4221 20.0226V18.3566C12.4221 18.2004 12.4116 18.0547 12.3804 17.9089C12.3596 17.7735 12.3075 17.6486 12.245 17.5445C12.1826 17.4403 12.0889 17.357 11.9743 17.305C11.8598 17.2425 11.714 17.2113 11.5266 17.2113C11.3704 17.2113 11.2247 17.2321 11.0997 17.2738C10.9748 17.3154 10.8498 17.3779 10.704 17.482V17.357C10.704 17.3258 10.6936 17.305 10.6728 17.2842C10.652 17.2633 10.6312 17.2529 10.5999 17.2529H10.0377C10.0064 17.2529 9.98561 17.2633 9.96479 17.2842C9.94396 17.305 9.93355 17.3258 9.93355 17.357V20.0226C9.93355 20.0538 9.94396 20.0746 9.96479 20.0954C9.98561 20.1163 10.0064 20.1267 10.0377 20.1267H10.6416C10.6728 20.1267 10.6936 20.1163 10.7145 20.0954C10.7353 20.0746 10.7457 20.0538 10.7457 20.0226V18.0547C10.829 18.013 10.9123 17.9714 10.9956 17.9401C11.0685 17.9089 11.1518 17.8985 11.2247 17.8985C11.2975 17.8985 11.36 17.9089 11.4121 17.9193C11.4641 17.9297 11.4954 17.961 11.5266 17.9922C11.5578 18.0338 11.5683 18.0755 11.5787 18.138C11.5891 18.2004 11.5891 18.2733 11.5891 18.3566V20.0226C11.5891 20.0538 11.5995 20.0746 11.6203 20.0954C11.6411 20.1163 11.662 20.1267 11.6932 20.1267H12.2971C12.3283 20.1267 12.3492 20.1163 12.37 20.0954C12.4012 20.0746 12.4221 20.0434 12.4221 20.0226ZM8.54873 19.4499C8.48626 19.4811 8.42379 19.502 8.3509 19.5228C8.27802 19.5436 8.20513 19.554 8.13225 19.554C8.02813 19.554 7.94483 19.5436 7.89277 19.5124C7.84071 19.4811 7.81988 19.4187 7.81988 19.3041V19.2625C7.81988 19.2 7.8303 19.1479 7.84071 19.1063C7.85112 19.0646 7.88236 19.023 7.91359 18.9918C7.94483 18.9605 7.99689 18.9397 8.04895 18.9189C8.10101 18.9085 8.1739 18.898 8.26761 18.898H8.54873V19.4499ZM9.35047 18.2317C9.35047 18.0443 9.31923 17.8881 9.26717 17.7631C9.21511 17.6382 9.13181 17.5341 9.03811 17.4508C8.93398 17.3675 8.81945 17.305 8.67368 17.2738C8.52791 17.2321 8.36132 17.2113 8.18431 17.2113C8.01771 17.2113 7.85112 17.2217 7.69494 17.2425C7.53876 17.2633 7.41381 17.2842 7.3201 17.3154C7.25763 17.3362 7.22639 17.3675 7.22639 17.4299V17.836C7.22639 17.8672 7.2368 17.8881 7.24722 17.9089C7.26804 17.9193 7.28886 17.9297 7.30969 17.9297H7.33051C7.37216 17.9297 7.42422 17.9193 7.47628 17.9193C7.53876 17.9193 7.60123 17.9089 7.68453 17.9089C7.75741 17.9089 7.84071 17.8985 7.92401 17.8985C8.0073 17.8985 8.0906 17.8985 8.16349 17.8985C8.27802 17.8985 8.37173 17.9193 8.4342 17.961C8.49667 18.0026 8.53832 18.0963 8.53832 18.2421V18.4191H8.26761C7.84071 18.4191 7.51793 18.4816 7.33051 18.6169C7.14309 18.7523 7.03897 18.9709 7.03897 19.2625V19.3041C7.03897 19.4707 7.0598 19.6061 7.11186 19.7102C7.16392 19.8247 7.22639 19.908 7.30969 19.9809C7.39299 20.0434 7.47628 20.0954 7.5804 20.1267C7.68453 20.1579 7.78865 20.1683 7.90318 20.1683C8.04895 20.1683 8.18431 20.1475 8.28843 20.1059C8.39255 20.0642 8.49667 20.0121 8.60079 19.9393V20.0226C8.60079 20.0538 8.61121 20.0746 8.63203 20.0954C8.65286 20.1163 8.67368 20.1267 8.70492 20.1267H9.26717C9.29841 20.1267 9.31923 20.1163 9.34006 20.0954C9.36088 20.0746 9.37129 20.0538 9.37129 20.0226V18.2317H9.35047ZM5.76869 19.023C5.76869 19.1583 5.71663 19.2729 5.62292 19.3458C5.52921 19.4187 5.34179 19.4603 5.0919 19.4603H5.0086C4.96696 19.4603 4.92531 19.4603 4.88366 19.4603C4.84201 19.4603 4.80036 19.4603 4.75871 19.4603H4.67542V18.5232H5.23767C5.4355 18.5232 5.58127 18.5649 5.65416 18.6586C5.72704 18.7523 5.76869 18.8564 5.76869 18.9709V19.023ZM5.74787 17.5341C5.74787 17.5861 5.73745 17.6382 5.72704 17.6902C5.70622 17.7423 5.68539 17.7839 5.64375 17.8152C5.6021 17.8464 5.55004 17.8777 5.48756 17.8985C5.42509 17.9193 5.34179 17.9297 5.23767 17.9297H4.67542V17.0655C4.69624 17.0655 4.71706 17.0655 4.7483 17.0655C4.77954 17.0655 4.82119 17.0655 4.86283 17.0655H4.97737H5.06066C5.32097 17.0655 5.49797 17.0967 5.6021 17.1592C5.70622 17.2217 5.75828 17.3258 5.75828 17.4612V17.5341H5.74787ZM6.60166 18.9709C6.60166 18.7939 6.56001 18.6482 6.47672 18.5232C6.39342 18.3983 6.2893 18.2941 6.15394 18.2317C6.2893 18.1692 6.39342 18.0651 6.4663 17.9401C6.53919 17.8048 6.58084 17.659 6.58084 17.5028V17.4091C6.58084 17.2113 6.53919 17.0447 6.4663 16.9093C6.39342 16.774 6.27889 16.6698 6.14353 16.5865C6.00817 16.5033 5.84158 16.4512 5.64375 16.4095C5.44591 16.3783 5.23767 16.3575 4.99819 16.3575C4.91489 16.3575 4.8316 16.3575 4.7483 16.3575C4.665 16.3575 4.58171 16.3679 4.49841 16.3679C4.41511 16.3679 4.34223 16.3783 4.26934 16.3887C4.19646 16.3991 4.1444 16.3991 4.10275 16.4095C4.00904 16.4304 3.93615 16.4512 3.8945 16.5033C3.85286 16.5449 3.83203 16.6282 3.83203 16.7427V19.7831C3.83203 19.8976 3.85286 19.9705 3.8945 20.0226C3.93615 20.0642 4.00904 20.0954 4.10275 20.1163C4.15481 20.1267 4.21728 20.1371 4.27975 20.1371C4.35264 20.1475 4.42552 20.1475 4.50882 20.1579C4.59212 20.1579 4.67542 20.1683 4.75871 20.1683C4.84201 20.1683 4.93572 20.1683 5.01902 20.1683C5.23767 20.1683 5.44591 20.1475 5.63333 20.1163C5.82075 20.085 5.99776 20.0226 6.13312 19.9393C6.27889 19.856 6.38301 19.7414 6.47672 19.5957C6.56001 19.4499 6.60166 19.2625 6.60166 19.0438V18.9709Z" fill="#004E91"/>
</g>
<defs>
<clipPath id="clip0_19085_4584">
<rect width="33.954" height="24" fill="white"/>
</clipPath>
</defs>
</svg>
