<svg width="32" height="24" viewBox="0 0 32 24" fill="none" xmlns="http://www.w3.org/2000/svg">
<g clip-path="url(#clip0_19085_4296)">
<path d="M9.58887 3.91921V21.399H17.1987C24.1113 21.399 27.1086 17.493 27.1086 11.982C27.1086 6.70351 24.1116 2.60101 17.1987 2.60101H10.9068C10.7337 2.60101 10.5623 2.63511 10.4024 2.70136C10.2424 2.76761 10.0971 2.86471 9.97477 2.98712C9.85238 3.10953 9.75531 3.25485 9.6891 3.41478C9.62289 3.57471 9.58883 3.74612 9.58887 3.91921Z" fill="#CC0066"/>
<path d="M4.02681 0.6588C3.67729 0.659118 3.34219 0.798101 3.09505 1.04524C2.84791 1.29238 2.70892 1.62749 2.7086 1.977V22.023C2.70892 22.3725 2.84791 22.7076 3.09505 22.9548C3.34219 23.2019 3.67729 23.3409 4.02681 23.3412H16.3244C24.5435 23.3412 29.0705 19.3038 29.0705 11.973C29.0705 2.1285 21.0845 0.6588 16.3244 0.6588H4.02681ZM16.3244 24H4.02681C3.50264 23.9994 3.00011 23.791 2.62947 23.4203C2.25883 23.0497 2.05036 22.5472 2.0498 22.023V1.977C2.05036 1.45284 2.25883 0.950303 2.62947 0.579664C3.00011 0.209025 3.50264 0.000555888 4.02681 0L16.3244 0C27.9878 0 29.7293 7.5012 29.7293 11.973C29.7293 19.7289 24.9689 24 16.3244 24Z" fill="black"/>
<path d="M12.2028 13.026C12.3351 13.026 12.4638 13.0044 12.5889 12.9618C12.7137 12.9189 12.8247 12.8478 12.9219 12.7482C13.0197 12.6492 13.0977 12.5193 13.1559 12.3594C13.2144 12.1998 13.2438 12.0045 13.2438 11.7744C13.2438 11.5638 13.2231 11.3739 13.1826 11.2044C13.1472 11.0463 13.0784 10.8977 12.9807 10.7685C12.8834 10.6451 12.7555 10.5493 12.6096 10.4907C12.4551 10.4262 12.2652 10.3941 12.0393 10.3941H11.3841V13.0263H12.2031L12.2028 13.026ZM12.2673 9.62219C12.5361 9.62219 12.7869 9.66539 13.0185 9.75119C13.2454 9.83355 13.4511 9.96521 13.6209 10.1367C13.7907 10.3083 13.923 10.5228 14.019 10.7802C14.1141 11.0376 14.1621 11.3397 14.1621 11.6868C14.1621 11.991 14.1231 12.2718 14.0451 12.5292C13.9671 12.786 13.8492 13.0086 13.6914 13.1955C13.5302 13.3854 13.3282 13.5364 13.1004 13.6374C12.8646 13.7448 12.5868 13.7982 12.2673 13.7982H10.4658V9.62219H12.2673ZM17.8941 9.62249V10.3941H15.6894V11.289H17.7126V12.0027H15.6894V13.0263H17.9409V13.7982H14.7711V9.62219L17.8941 9.62249ZM21.0909 12.1839L20.5644 10.6515H20.5527L20.0091 12.1839H21.0909ZM21.0384 9.62219L22.5996 13.7982H21.6465L21.3306 12.8682H19.7688L19.4415 13.7982H18.5175L20.0967 9.62219H21.0384ZM24.0954 9.62249V13.026H26.1306V13.7979H23.1771V9.62189H24.0951L24.0954 9.62249Z" fill="white"/>
<path d="M8.07623 11.7102C8.07623 11.9631 8.02641 12.2136 7.9296 12.4473C7.8328 12.681 7.69091 12.8934 7.51203 13.0723C7.33316 13.2511 7.12081 13.393 6.8871 13.4898C6.65339 13.5867 6.4029 13.6365 6.14993 13.6365C5.89697 13.6365 5.64648 13.5867 5.41277 13.4898C5.17906 13.393 4.96671 13.2511 4.78783 13.0723C4.60896 12.8934 4.46707 12.681 4.37026 12.4473C4.27346 12.2136 4.22363 11.9631 4.22363 11.7102C4.22363 11.1993 4.42658 10.7093 4.78783 10.3481C5.14908 9.98682 5.63905 9.78387 6.14993 9.78387C6.66082 9.78387 7.15078 9.98682 7.51203 10.3481C7.87328 10.7093 8.07623 11.1993 8.07623 11.7102ZM7.60883 21.399C5.99693 21.399 4.68983 20.0922 4.68983 18.48V16.2036C4.68983 15.8165 4.8436 15.4453 5.11731 15.1716C5.39102 14.8978 5.76225 14.7441 6.14933 14.7441C6.53642 14.7441 6.90765 14.8978 7.18135 15.1716C7.45506 15.4453 7.60883 15.8165 7.60883 16.2036V21.399Z" fill="black"/>
</g>
<defs>
<clipPath id="clip0_19085_4296">
<rect width="27.9" height="24" fill="white" transform="translate(2.0498)"/>
</clipPath>
</defs>
</svg>
