<svg width="44" height="24" viewBox="0 0 44 24" fill="none" xmlns="http://www.w3.org/2000/svg">
<g clip-path="url(#clip0_19085_4579)">
<path d="M39.0184 0.0161743H4.15596C1.8677 0.0161743 0.0126953 1.87118 0.0126953 4.15944V19.8446C0.0126953 22.1328 1.8677 23.9878 4.15596 23.9878H39.0184C41.3067 23.9878 43.1617 22.1328 43.1617 19.8446V4.15944C43.1617 1.87118 41.3067 0.0161743 39.0184 0.0161743Z" fill="#FFB3C7"/>
<path fill-rule="evenodd" clip-rule="evenodd" d="M39.1216 14.0866C38.557 14.0866 38.0994 14.5484 38.0994 15.118C38.0994 15.6876 38.557 16.1495 39.1216 16.1495C39.6861 16.1495 40.1438 15.6876 40.1438 15.118C40.1438 14.5483 39.6861 14.0866 39.1216 14.0866ZM35.7585 13.2891C35.7585 12.5092 35.0979 11.8771 34.2829 11.8771C33.468 11.8771 32.8072 12.5092 32.8072 13.2891C32.8072 14.0691 33.4679 14.7014 34.2829 14.7014C35.098 14.7014 35.7585 14.0691 35.7585 13.2891ZM35.764 10.5447H37.3925V16.0334H35.764V15.6826C35.3039 15.9992 34.7486 16.1854 34.1496 16.1854C32.5645 16.1854 31.2794 14.8887 31.2794 13.2891C31.2794 11.6895 32.5645 10.3929 34.1496 10.3929C34.7486 10.3929 35.3039 10.5791 35.764 10.8958V10.5447ZM22.7311 11.2596V10.5447H21.0637V16.0334H22.7348V13.4708C22.7348 12.6062 23.6635 12.1415 24.3078 12.1415C24.3145 12.1415 24.3206 12.1422 24.3272 12.1423V10.5452C23.6658 10.5452 23.0576 10.8308 22.7311 11.2596ZM18.5777 13.2892C18.5777 12.5092 17.9169 11.8771 17.102 11.8771C16.287 11.8771 15.6263 12.5093 15.6263 13.2892C15.6263 14.0691 16.287 14.7014 17.102 14.7014C17.917 14.7014 18.5777 14.0691 18.5777 13.2892ZM18.583 10.5447H20.2117V16.0334H18.583V15.6826C18.1229 15.9993 17.5676 16.1854 16.9687 16.1854C15.3835 16.1854 14.0984 14.8887 14.0984 13.2891C14.0984 11.6895 15.3835 10.393 16.9687 10.393C17.5676 10.393 18.123 10.5791 18.583 10.8958V10.5447ZM28.3855 10.3971C27.735 10.3971 27.1192 10.6009 26.7076 11.1631V10.545H25.0861V16.0335H26.7275V13.1491C26.7275 12.3144 27.2822 11.9057 27.9501 11.9057C28.6659 11.9057 29.0773 12.3372 29.0773 13.1378V16.0335H30.704V12.5431C30.704 11.2658 29.6975 10.3971 28.3855 10.3971ZM11.7262 16.0335H13.4307V8.09875H11.7262V16.0335ZM4.23828 16.0357H6.04325V8.09731H4.23828V16.0357ZM10.5515 8.09731C10.5515 9.81589 9.88774 11.4146 8.70507 12.6029L11.2 16.036H8.97067L6.25919 12.305L6.95898 11.7762C8.1195 10.899 8.78514 9.55812 8.78514 8.09729L10.5515 8.09731Z" fill="#0A0B09"/>
</g>
<defs>
<clipPath id="clip0_19085_4579">
<rect width="43.1703" height="24" fill="white"/>
</clipPath>
</defs>
</svg>
