<svg width="32" height="24" viewBox="0 0 32 24" fill="none" xmlns="http://www.w3.org/2000/svg">
<g clip-path="url(#clip0_19085_4334)">
<path d="M28 0H4C1.79086 0 0 1.79086 0 4V20C0 22.2091 1.79086 24 4 24H28C30.2091 24 32 22.2091 32 20V4C32 1.79086 30.2091 0 28 0Z" fill="#0071C0"/>
<path d="M20.2427 8.87006C20.2319 8.94158 20.2196 9.01471 20.2058 9.08983C19.7308 11.6276 18.1057 12.5043 16.0302 12.5043H14.9734C14.7196 12.5043 14.5057 12.6961 14.4662 12.9566L13.9251 16.5273L13.7719 17.5394C13.7462 17.7104 13.8729 17.8647 14.0388 17.8647H15.9131C16.135 17.8647 16.3236 17.6969 16.3585 17.4691L16.3769 17.37L16.7298 15.0396L16.7525 14.9118C16.7871 14.6832 16.976 14.5154 17.1979 14.5154H17.4783C19.2942 14.5154 20.7158 13.7482 21.1312 11.5281C21.3048 10.6007 21.215 9.82626 20.7557 9.28163C20.6167 9.1174 20.4443 8.98114 20.2427 8.87006Z" fill="#99C6E5"/>
<path d="M19.7454 8.66387C19.6729 8.64189 19.598 8.62191 19.5212 8.60393C19.444 8.58635 19.3649 8.57076 19.2835 8.55718C18.9986 8.50923 18.6864 8.48645 18.3519 8.48645H15.5287C15.4592 8.48645 15.3932 8.50283 15.334 8.5324C15.2039 8.59753 15.1071 8.7258 15.0837 8.88284L14.4831 12.8411L14.4658 12.9566C14.5054 12.6961 14.7193 12.5043 14.9731 12.5043H16.0299C18.1054 12.5043 19.7305 11.6272 20.2055 9.08982C20.2197 9.0147 20.2316 8.94158 20.2423 8.87005C20.1221 8.80372 19.992 8.74698 19.8518 8.69863C19.8172 8.68664 19.7815 8.67505 19.7454 8.66387Z" fill="#CCE2F2"/>
<path d="M15.0834 8.88286C15.1068 8.72582 15.2036 8.59755 15.3337 8.53282C15.3933 8.50325 15.4589 8.48687 15.5284 8.48687H18.3516C18.6861 8.48687 18.9983 8.50964 19.2832 8.55759C19.3646 8.57118 19.4437 8.58676 19.5209 8.60435C19.5977 8.62233 19.6726 8.64231 19.7451 8.66428C19.7812 8.67547 19.8169 8.68706 19.8519 8.69865C19.992 8.747 20.1222 8.80414 20.2424 8.87007C20.3837 7.93225 20.2413 7.29371 19.754 6.71551C19.2168 6.07897 18.2472 5.80646 17.0064 5.80646H13.4045C13.1511 5.80646 12.9349 5.99826 12.8957 6.25919L11.3954 16.1549C11.3659 16.3507 11.511 16.5273 11.7007 16.5273H13.9245L14.4828 12.8411L15.0834 8.88286Z" fill="white"/>
</g>
<defs>
<clipPath id="clip0_19085_4334">
<rect width="32" height="24" fill="white"/>
</clipPath>
</defs>
</svg>
